<svg xmlns="http://www.w3.org/2000/svg" version="1.1" xmlns:xlink="http://www.w3.org/1999/xlink" xmlns:svgjs="http://svgjs.dev/svgjs" viewBox="0 0 1920 1080"><rect width="1920" height="1080" fill="#005dc0"></rect><g transform="matrix(-2.112515728529184e-16,-1.15,1.15,-2.112515728529184e-16,290.0068969726565,1587.6579315185547)"><path d="M0,-1080C13.831532471525255,-995.7825745025663,84.34512103837709,-731.0846785392142,82.98919482915153,-574.6954470153973C81.63326861992597,-418.3062154915805,11.64635540132332,-290.59308443503596,-8.13555725535332,-141.66461085709904C-27.917469912029958,7.2638627208379205,-24.540328527343462,187.63714811736588,-35.7022811109083,318.87539445222444C-46.86423369447314,450.113640787083,-66.67332026541251,499.44270425323134,-75.10727275674236,645.7648671520523C-83.54122524807221,792.0870300508732,-114.66207407376164,1037.703683426792,-86.30599605888739,1196.80837184515C-57.94991804401313,1355.9130602635082,80.64486265602197,1439.8610596363928,95.0291953325032,1600.3929976622012C109.41352800898444,1760.9249356880096,15.838199222083867,2066.7321662770337,0,2160L 1920 2160 L 1920 -1080 Z" fill="url(&quot;#SvgjsLinearGradient1210&quot;)"></path><path d="M320,-1080C323.77449923846467,-956.7387587837018,338.1997458672042,-568.358275593245,342.6469954307879,-340.43255270221067C347.09424499437165,-112.50682981117629,340.75613859451926,95.50026986501845,346.68349738150255,287.55433734620624C352.61085616848584,479.608404827394,372.62454200189046,601.7863030644412,378.2111481526877,811.8918521849162C383.79775430348496,1021.9974013053911,389.904992311734,1323.5029407665422,380.20313428628606,1548.1876320690562C370.5012762608381,1772.8723233715702,330.033855714381,2058.0312720115094,320,2160L 1920 2160 L 1920 -1080 Z" fill="url(&quot;#SvgjsLinearGradient1211&quot;)"></path><path d="M640,-1080C639.6254123576457,-972.855009808483,652.228003215924,-641.5437318047755,637.752474145874,-437.1300588508983C623.276945075824,-232.71638589702118,554.8469837349144,-86.44689920024828,553.1468255797001,146.48203772326275C551.4466674244859,379.41097464677375,599.4406442840252,712.6989166217427,627.5515252145885,960.4435626901679C655.6624061451519,1208.1882087585932,719.7373653655119,1433.023841248842,721.8121111630804,1632.949914133814C723.886856960649,1832.875987018786,653.6353518605134,2072.1583190223023,640,2160L 1920 2160 L 1920 -1080 Z" fill="url(&quot;#SvgjsLinearGradient1212&quot;)"></path><path d="M960,-1080C959.3379506130736,-990.0849992922921,956.4913801647866,-735.5856022636871,956.0277036784416,-540.5099957537523C955.5640271920967,-345.43438924381746,936.1429768382386,-89.42048564927299,957.2179410819302,90.45363905960863C978.2929053256219,270.3277637684903,1073.3226241422024,360.41805501094734,1082.4774891405912,538.7347524995375C1091.63235413898,717.0514499881277,1043.9399115797721,992.7698116183279,1012.1471310722629,1160.3538239911495C980.3543505647538,1327.9378363639712,900.4119946075799,1377.6311307349922,891.7208060955361,1544.2388267364672C883.0296175834923,1710.8465227379422,948.620134349256,2057.373137789411,960,2160L 1920 2160 L 1920 -1080 Z" fill="url(&quot;#SvgjsLinearGradient1213&quot;)"></path><path d="M1280,-1080C1260.9369865746814,-1009.2373108846557,1157.24395466559,-817.3386550856592,1165.6219194480889,-655.4238653079339C1173.9998842305877,-493.5090755302085,1307.5908198875886,-255.00830042890462,1330.2677886949932,-108.51126133364784C1352.9447575023978,37.985777761608944,1321.5576457803886,68.0711200951944,1301.6837322925162,223.55836926360683C1281.8098188046438,379.0456184320193,1193.8544117785175,656.8007741237034,1211.024307767758,824.4122336768268C1228.1942037569986,992.0236932299501,1405.6903131114957,1097.0856877138438,1404.70310822796,1229.2271265823474C1403.7159033444243,1361.368565450851,1225.8849298378705,1462.1320546515733,1205.1010784665439,1617.2608668878488C1184.3172270952173,1772.3896791241243,1267.5168464110907,2069.5434778146414,1280,2160L 1920 2160 L 1920 -1080 Z" fill="url(&quot;#SvgjsLinearGradient1214&quot;)"></path><path d="M1600,-1080C1610.843899701895,-1008.332806129718,1674.6416497601726,-775.3291610144054,1665.0633982113698,-649.9968367783083C1655.4851466625669,-524.6645125422112,1536.13931914606,-473.4305022407317,1542.5304907071832,-328.0060545834175C1548.9216622683064,-182.5816069261033,1713.3815980883696,75.8396404515052,1703.410427578109,222.54984916557692C1693.4392570678483,369.2600578796486,1514.1527434531504,451.68125756440935,1482.7034676456187,552.2551977010128C1451.254191838087,652.8291378376161,1507.103872494378,674.5214666920901,1514.7147727329188,825.9934899851975C1522.3256729714597,977.4655132783048,1525.4331632790834,1290.0900712131465,1528.3688690768631,1461.0873374596567C1531.3045748746429,1632.084603706167,1520.390485699075,1735.4916437075353,1532.3290075195978,1851.9770874642593C1544.2675293401205,1968.4625312209832,1588.7215012532663,2108.66284791071,1600,2160L 1920 2160 L 1920 -1080 Z" fill="url(&quot;#SvgjsLinearGradient1215&quot;)"></path></g><defs><linearGradient x1="0.1" y1="0" x2="0" y2="1" id="SvgjsLinearGradient1210"><stop stop-color="#005dc0" offset="0"></stop><stop stop-color="#007dc0" offset="0"></stop></linearGradient><linearGradient x1="0.1" y1="0" x2="0" y2="1" id="SvgjsLinearGradient1211"><stop stop-color="#007afb" offset="0"></stop><stop stop-color="#00a4fb" offset="0.16666666666666666"></stop></linearGradient><linearGradient x1="0.1" y1="0" x2="0" y2="1" id="SvgjsLinearGradient1212"><stop stop-color="#3898ff" offset="0"></stop><stop stop-color="#38b9ff" offset="0.3333333333333333"></stop></linearGradient><linearGradient x1="0.1" y1="0" x2="0" y2="1" id="SvgjsLinearGradient1213"><stop stop-color="#74b7ff" offset="0"></stop><stop stop-color="#74ceff" offset="0.5"></stop></linearGradient><linearGradient x1="0.1" y1="0" x2="0" y2="1" id="SvgjsLinearGradient1214"><stop stop-color="#afd6ff" offset="0"></stop><stop stop-color="#afe3ff" offset="0.6666666666666666"></stop></linearGradient><linearGradient x1="0.1" y1="0" x2="0" y2="1" id="SvgjsLinearGradient1215"><stop stop-color="#eaf4ff" offset="0"></stop><stop stop-color="#eaf7ff" offset="0.8333333333333334"></stop></linearGradient></defs></svg>