<svg xmlns="http://www.w3.org/2000/svg" version="1.1" xmlns:xlink="http://www.w3.org/1999/xlink" xmlns:svgjs="http://svgjs.dev/svgjs" viewBox="0 0 1920 1080"><rect width="1920" height="1080" fill="#d8d4d4"></rect><g transform="matrix(-2.112515728529184e-16,-1.15,1.15,-2.112515728529184e-16,285.4482650756838,1582.4155048370362)"><path d="M0,-1080C13.409729097238388,-992.1006695984197,77.94181196192456,-776.5857637797845,80.45837458343033,-552.604017590518C82.9749372049361,-328.6222714012514,16.144511741791813,27.37208341811899,15.099375729034648,263.89047713559916C14.054239716277484,500.4088708530793,94.37998699212226,675.7293091528292,74.18755850688734,866.506344714363C53.99513002165243,1057.283380275897,-93.69060209789357,1192.9704146238628,-106.0551951823748,1408.5526905048023C-118.41978826685603,1624.1349663857418,-17.675865863729133,2034.7587817508004,0,2160L 1920 2160 L 1920 -1080 Z" fill="url(&quot;#SvgjsLinearGradient1258&quot;)"></path><path d="M160,-1080C171.34886096261616,-973.5788558845159,227.65727994796592,-634.049503866099,228.09316577569695,-441.47313530709494C228.52905160342797,-248.8967667480908,189.35918317597896,-70.13357883337318,162.6153149663861,75.45821135402474C135.87144675679326,221.05000154142266,59.857150292998774,263.18693245430984,67.62995651813986,432.0776058172925C75.40276274328095,600.9682791802752,202.48125772002413,893.1214922238188,209.25215231723263,1088.802251531921C216.02304691444112,1284.4830108400233,116.46401615426295,1427.6292035878928,108.25532410139084,1606.1621616659058C100.04663204851873,1784.695119743919,151.3758873502318,2067.693693610984,160,2160L 1920 2160 L 1920 -1080 Z" fill="url(&quot;#SvgjsLinearGradient1259&quot;)"></path><path d="M320,-1080C305.1267853955707,-988.1127215831551,239.34688537525267,-678.1668623356175,230.76071237342438,-528.6763294989308C222.1745393715961,-379.1857966622443,271.7061817360613,-307.54292191855836,268.48296198903034,-183.05680297988067C265.2597422419994,-58.570684041202966,197.70814235596274,62.25560943107942,211.42139389123855,218.24038413313542C225.13464542651437,374.22515883519145,338.3679173359864,582.2232182502559,350.7624712006853,752.8518452324554C363.1570250653842,923.4804722146549,289.7573465092057,1063.5075028880542,285.7887170794318,1242.0121460263329C281.8200876496579,1420.5167891646115,321.2488141352805,1670.8817283998499,326.95069462204185,1823.8797040621278C332.6525751088032,1976.8776797244057,321.15844910367366,2103.9799506770214,320,2160L 1920 2160 L 1920 -1080 Z" fill="url(&quot;#SvgjsLinearGradient1260&quot;)"></path><path d="M480,-1080C472.1496472012477,-936.4813491943478,432.0014781741897,-479.1043195819552,432.89788320748625,-218.88809516608688C433.7942882407828,41.328129249781455,479.62265798661775,217.0855710238805,485.3784301997793,481.2973464952101C491.13420241294085,745.5091219665396,468.328921519752,1086.5987820777589,467.4325164864554,1366.3825576618906C466.53611145315887,1646.1663332460223,477.90541941440927,2027.7304262769817,480,2160L 1920 2160 L 1920 -1080 Z" fill="url(&quot;#SvgjsLinearGradient1261&quot;)"></path><path d="M640,-1080C635.8069316093845,-1012.3669073821909,602.9068762627921,-802.0509472203918,614.8415896563072,-674.2014442931453C626.7763030498222,-546.3519413658988,708.0629835153737,-461.95478557491776,711.60828036109,-312.902982436521C715.1535772068063,-163.85117929812415,658.0092254474024,67.42470703398746,636.1133707306051,220.10937453723562C614.2175160138078,372.79404204048376,596.0124503413899,495.99862556659673,580.2331520603061,603.205022582968C564.4538537792223,710.4114195993393,517.5713754503595,742.5349290272828,541.4375810441022,863.3477566354634C565.303786637845,984.1605842436439,695.2421692529547,1158.394330381195,723.4303856227625,1328.0819882320516C751.6186019925703,1497.7696460829081,724.4719435334093,1742.8207017792784,710.5668792629489,1881.473703740603C696.6618149924884,2020.1267057019277,651.7611465438248,2113.5789506234337,640,2160L 1920 2160 L 1920 -1080 Z" fill="url(&quot;#SvgjsLinearGradient1262&quot;)"></path><path d="M800,-1080C807.9758582238411,-1016.7471818864428,847.4438079734585,-855.8768488077026,847.8551493430468,-700.4830913186568C848.2664907126351,-545.089333829611,795.417972242659,-334.79950943351014,802.4680482175295,-147.63745506572536C809.5181241924,39.524599302059414,873.1942670910254,276.6003195886318,890.1556051922701,422.4892348880518C907.1169432935147,568.3781501874718,939.2854498819106,588.5099008377174,904.2360768249978,727.6960367307946C869.186703768085,866.8821726238718,685.0337820064263,1108.561587009714,679.8593668507933,1257.606050246515C674.6849516951603,1406.650513483316,853.1661470329985,1471.5638245260202,873.1895858911996,1621.962816151601C893.2130247494007,1772.3618077771816,812.1982643151999,2070.327136025267,800,2160L 1920 2160 L 1920 -1080 Z" fill="url(&quot;#SvgjsLinearGradient1263&quot;)"></path><path d="M960,-1080C941.8279710903583,-993.8645376131828,865.2528438650658,-752.3270213857627,850.9678265421499,-563.1872256790971C836.682809219234,-374.0474299724315,854.244997827645,-125.81631776412578,874.2898960625048,54.83877423999343C894.3347942973646,235.49386624411264,965.3552256445629,354.87869566883944,971.2372159513088,520.7433263456181C977.1192062580548,686.6079570223968,916.689314626278,877.0250225871896,909.5818379029806,1050.0265583006658C902.4743611796832,1223.028094014142,920.1893285953544,1373.7569670099197,928.5923556115242,1558.7525406264754C936.9953826276941,1743.748114243031,954.7653926019207,2059.7920901044126,960,2160L 1920 2160 L 1920 -1080 Z" fill="url(&quot;#SvgjsLinearGradient1264&quot;)"></path><path d="M1120,-1080C1110.0779353136732,-951.7877321647013,1055.1357020109842,-509.45386845057715,1060.4676118820382,-310.7263929882077C1065.7995217530922,-111.99891752583821,1132.0643579543987,-99.40862505273134,1151.991459226324,112.36485277421679C1171.9185604982492,324.1383306011649,1164.5819392493088,730.9534308044413,1180.0302195135903,959.9144739734811C1195.4784997778718,1188.875517142521,1254.6861773976113,1286.1168574507028,1244.681140812013,1486.1311117884559C1234.6761042264145,1686.145366126209,1140.7801901353355,2047.6885186314094,1120,2160L 1920 2160 L 1920 -1080 Z" fill="url(&quot;#SvgjsLinearGradient1265&quot;)"></path><path d="M1280,-1080C1262.4661925054522,-995.2803379166786,1172.845763493729,-714.3740737360117,1174.797155032713,-571.6820275000719C1176.7485465716968,-428.989981264132,1287.9035577971072,-378.6138608034024,1291.7083492339027,-223.84772258436055C1295.5131406706982,-69.08158436531872,1192.5610892471484,201.4736704362255,1197.6259036534857,356.91480181417904C1202.690718059823,512.3559331921326,1300.5862154571405,578.8080937840701,1322.0972356719262,708.7990656833608C1343.608255886712,838.7900375826515,1319.8104933198435,986.9826258197883,1326.6920249421999,1136.860633209923C1333.5735565645562,1286.7386406000578,1371.1684295630973,1437.5438822258232,1363.386425406064,1608.0671100241693C1355.6044212490308,1778.5903378225155,1293.8977375676773,2068.0111850040284,1280,2160L 1920 2160 L 1920 -1080 Z" fill="url(&quot;#SvgjsLinearGradient1266&quot;)"></path><path d="M1440,-1080C1445.224415715847,-991.119708189134,1462.452665338611,-707.09315024232,1471.3464942950818,-546.7182491348044C1480.2403232515526,-386.3433480272888,1489.7939545747226,-246.2842918414719,1493.362973738825,-117.75059335490636C1496.9319929029275,10.783105131659198,1497.8126487832524,80.71660430448779,1492.760609279696,224.48394178458904C1487.7085697761395,368.2512792646903,1474.5356764389808,587.062874827,1463.0507367174869,744.8534315257011C1451.565796995993,902.6439882244023,1445.8272705214135,1030.3907230481789,1423.8509709507318,1171.227281976796C1401.8746713800501,1312.063840905413,1328.501434451852,1425.0773320935364,1331.1929392933966,1589.8727850974037C1333.8844441349413,1754.668238101271,1421.8654898822329,2064.978797516234,1440,2160L 1920 2160 L 1920 -1080 Z" fill="url(&quot;#SvgjsLinearGradient1267&quot;)"></path><path d="M1600,-1080C1583.9236038467573,-1009.3981853246712,1498.8070876944605,-843.9280281148849,1503.5416230805436,-656.3891119480272C1508.2761584666266,-468.85019578116953,1616.101973268059,-149.23231348881984,1628.4072123164988,45.233497001146134C1640.7124513649385,239.6993074911121,1574.4702908569386,352.5848196206167,1577.3730573711823,510.4057509917686C1580.275823885426,668.2266823629205,1658.7721793496396,821.625762812324,1645.823811401961,992.1590852280574C1632.8754434542823,1162.6924076437908,1507.3201515854375,1338.9655330241785,1499.6828496851108,1533.605685486169C1492.045547784784,1728.2458379481595,1583.2804749475185,2055.6009475810283,1600,2160L 1920 2160 L 1920 -1080 Z" fill="url(&quot;#SvgjsLinearGradient1268&quot;)"></path><path d="M1760,-1080C1774.5731139849318,-1012.0007034452819,1867.432400516525,-801.3173352967812,1847.43868390959,-672.0042206716919C1827.4449673026552,-542.6911060466026,1644.6275434188465,-457.41032587951804,1640.03770035839,-304.12131224946455C1635.4478572979338,-150.8322986194111,1812.2307253790905,104.77987711355328,1819.8996255468521,247.72986110862882C1827.5685257146138,390.67984510370434,1709.1955837290604,430.15134051900105,1686.0511013649605,553.5785917209888C1662.9066190008605,677.0058429229766,1662.5965346856033,867.7509238119038,1681.032731362252,988.2933683205554C1699.4689280389007,1108.835812829207,1786.1033738839049,1154.843029411034,1796.668281424853,1276.8332587728983C1807.233188965801,1398.8234881347626,1750.5335568454163,1573.0402876205574,1744.4221766079409,1720.234744491741C1738.3107963704654,1867.4292013629245,1757.4036961013235,2086.7057907486233,1760,2160L 1920 2160 L 1920 -1080 Z" fill="url(&quot;#SvgjsLinearGradient1269&quot;)"></path></g><defs><linearGradient x1="0.1" y1="0" x2="0" y2="1" id="SvgjsLinearGradient1258"><stop stop-color="#d8d4d4" offset="0"></stop><stop stop-color="#d8d4d5" offset="0"></stop></linearGradient><linearGradient x1="0.1" y1="0" x2="0" y2="1" id="SvgjsLinearGradient1259"><stop stop-color="#dbd8d8" offset="0"></stop><stop stop-color="#dbd8d8" offset="0.08333333333333333"></stop></linearGradient><linearGradient x1="0.1" y1="0" x2="0" y2="1" id="SvgjsLinearGradient1260"><stop stop-color="#dfdbdb" offset="0"></stop><stop stop-color="#dfdbdc" offset="0.16666666666666666"></stop></linearGradient><linearGradient x1="0.1" y1="0" x2="0" y2="1" id="SvgjsLinearGradient1261"><stop stop-color="#e2dfdf" offset="0"></stop><stop stop-color="#e2dfdf" offset="0.25"></stop></linearGradient><linearGradient x1="0.1" y1="0" x2="0" y2="1" id="SvgjsLinearGradient1262"><stop stop-color="#e5e3e3" offset="0"></stop><stop stop-color="#e5e3e3" offset="0.3333333333333333"></stop></linearGradient><linearGradient x1="0.1" y1="0" x2="0" y2="1" id="SvgjsLinearGradient1263"><stop stop-color="#e9e6e6" offset="0"></stop><stop stop-color="#e9e6e6" offset="0.4166666666666667"></stop></linearGradient><linearGradient x1="0.1" y1="0" x2="0" y2="1" id="SvgjsLinearGradient1264"><stop stop-color="#eceaea" offset="0"></stop><stop stop-color="#eceaea" offset="0.5"></stop></linearGradient><linearGradient x1="0.1" y1="0" x2="0" y2="1" id="SvgjsLinearGradient1265"><stop stop-color="#efeeee" offset="0"></stop><stop stop-color="#efeeee" offset="0.5833333333333334"></stop></linearGradient><linearGradient x1="0.1" y1="0" x2="0" y2="1" id="SvgjsLinearGradient1266"><stop stop-color="#f3f1f1" offset="0"></stop><stop stop-color="#f3f1f1" offset="0.6666666666666666"></stop></linearGradient><linearGradient x1="0.1" y1="0" x2="0" y2="1" id="SvgjsLinearGradient1267"><stop stop-color="#f6f5f5" offset="0"></stop><stop stop-color="#f6f5f5" offset="0.75"></stop></linearGradient><linearGradient x1="0.1" y1="0" x2="0" y2="1" id="SvgjsLinearGradient1268"><stop stop-color="#f9f9f9" offset="0"></stop><stop stop-color="#f9f9f9" offset="0.8333333333333334"></stop></linearGradient><linearGradient x1="0.1" y1="0" x2="0" y2="1" id="SvgjsLinearGradient1269"><stop stop-color="#fcfcfc" offset="0"></stop><stop stop-color="#fcfcfc" offset="0.9166666666666666"></stop></linearGradient></defs></svg>