<svg xmlns="http://www.w3.org/2000/svg" version="1.1" xmlns:xlink="http://www.w3.org/1999/xlink" xmlns:svgjs="http://svgjs.dev/svgjs" viewBox="0 0 1920 1080"><rect width="1920" height="1080" fill="#9e0031"></rect><g transform="matrix(1.15,0,0,1.15,-136.92463874816895,-81)"><path d="M0,-1080C-5.436928703504805,-1022.2801320905278,-37.45635913444255,-878.302092432317,-32.62157222102883,-733.6807925431665C-27.786785307615105,-589.059492654016,39.173309631833966,-374.7456764591858,29.008721480482336,-212.27220066509722C18.844133329130706,-49.7987248710086,-104.91372356196402,82.94331413792054,-93.6091011291386,241.1600622213653C-82.30447869631317,399.3768103048101,69.01542397601963,580.6113300683431,96.83645607743489,737.0282878355714C124.65748817885014,893.4452456027997,102.1773478835528,1038.2994450139317,73.31709147935294,1179.6618088247346C44.45683507515308,1321.0241726355375,-64.10556710120547,1421.8127721711774,-76.3250823477643,1585.2024707003882C-88.54459759432312,1748.592169229599,-12.720847057960716,2064.200411783398,0,2160L 1920 2160 L 1920 -1080 Z" fill="url(&quot;#SvgjsLinearGradient1012&quot;)"></path><path d="M320,-1080C323.48693226588404,-951.9851518790211,361.46239861254776,-528.7517543528397,340.9215935953043,-311.910911274127C320.3807885780608,-95.07006819541428,213.66072356912758,26.378861967421443,196.75516989653914,221.04505847227625C179.8496162239507,415.71125497713103,208.7290272387828,646.9798115327886,239.48827155977364,856.0862677550017C270.24751588076447,1065.1927239772147,367.89201441577967,1258.364840431388,381.3106358224841,1475.6837958055544C394.7292572291885,1693.0027511797207,330.21843930374735,2045.9472993009258,320,2160L 1920 2160 L 1920 -1080 Z" fill="url(&quot;#SvgjsLinearGradient1013&quot;)"></path><path d="M640,-1080C658.4700740805781,-963.3323926622556,757.1832392600927,-641.3549365763649,750.8204444834687,-379.99435597353397C744.4576497068447,-118.633775370703,616.8945652559684,212.98138539111295,601.8232313402557,488.16348361698573C586.751897424543,763.3455818428586,654.0296462125687,992.4588139845335,660.3924409891927,1271.0982333817026C666.7552357658167,1549.7376527788715,643.3987401648654,2011.8497055636171,640,2160L 1920 2160 L 1920 -1080 Z" fill="url(&quot;#SvgjsLinearGradient1014&quot;)"></path><path d="M960,-1080C977.5957026662888,-1006.1401446864445,1056.1100268170342,-832.5400231675973,1065.574215997733,-636.840868118667C1075.038405178432,-441.14171306973674,1023.1595260686743,-115.38631446928619,1016.7851350841936,94.19493029358154C1010.4107440997129,303.77617505644923,1037.6137887546543,449.8135846450898,1027.3278700908493,620.6466004585393C1017.0419514270443,791.4796162719888,965.3623085300164,969.1061444554265,955.069623101364,1119.1930251742788C944.7769376727115,1269.2799058931312,964.7500280358282,1347.700055634033,965.5717575189342,1521.1678847716532C966.3934870020402,1694.6357139092734,960.9286262531557,2053.5279807952757,960,2160L 1920 2160 L 1920 -1080 Z" fill="url(&quot;#SvgjsLinearGradient1015&quot;)"></path><path d="M1280,-1080C1284.1986703571195,-1017.646767884004,1292.5416997728048,-844.6689975938523,1305.1920221427163,-705.8806073040239C1317.8423445126277,-567.0922170141955,1344.7435020876392,-426.6141741112094,1355.901934219468,-247.26965826102963C1367.060366351297,-67.92514241084987,1365.8955040056048,214.97329717034987,1372.1426149336894,370.1864877970547C1378.389725861774,525.3996784237596,1421.4681889136602,543.5465648785613,1393.3845997879748,684.0094854991994C1365.3010106622894,824.4724061198375,1214.5826319075973,1062.3135335896027,1203.6410801795769,1212.9640115208833C1192.6995284515565,1363.614489452164,1315.0088027831152,1430.0730216736977,1327.7352894198525,1587.9123530868837C1340.4617760565898,1745.7516845000698,1287.9558815699754,2064.652058847814,1280,2160L 1920 2160 L 1920 -1080 Z" fill="url(&quot;#SvgjsLinearGradient1016&quot;)"></path><path d="M1600,-1080C1586.6750404893312,-945.8280418438256,1530.421071986518,-543.3479522906354,1520.0502429359874,-274.96825106295404C1509.6794138854568,-6.588549835272715,1533.8650114703678,280.70769220417924,1537.7750256968166,530.2782073660878C1541.6850399232653,779.8487225279964,1533.1394992441492,950.834541136179,1543.5103282946798,1222.4548399084977C1553.8811573452103,1494.0751386808163,1590.58505471578,2003.7424733180828,1600,2160L 1920 2160 L 1920 -1080 Z" fill="url(&quot;#SvgjsLinearGradient1017&quot;)"></path></g><defs><linearGradient x1="0.1" y1="0" x2="0" y2="1" id="SvgjsLinearGradient1012"><stop stop-color="#9e0031" offset="0"></stop><stop stop-color="#9e004b" offset="0"></stop></linearGradient><linearGradient x1="0.1" y1="0" x2="0" y2="1" id="SvgjsLinearGradient1013"><stop stop-color="#8c002c" offset="0"></stop><stop stop-color="#8c0043" offset="0.16666666666666666"></stop></linearGradient><linearGradient x1="0.1" y1="0" x2="0" y2="1" id="SvgjsLinearGradient1014"><stop stop-color="#7b0026" offset="0"></stop><stop stop-color="#7b003a" offset="0.3333333333333333"></stop></linearGradient><linearGradient x1="0.1" y1="0" x2="0" y2="1" id="SvgjsLinearGradient1015"><stop stop-color="#690021" offset="0"></stop><stop stop-color="#690032" offset="0.5"></stop></linearGradient><linearGradient x1="0.1" y1="0" x2="0" y2="1" id="SvgjsLinearGradient1016"><stop stop-color="#58001b" offset="0"></stop><stop stop-color="#58002a" offset="0.6666666666666666"></stop></linearGradient><linearGradient x1="0.1" y1="0" x2="0" y2="1" id="SvgjsLinearGradient1017"><stop stop-color="#460016" offset="0"></stop><stop stop-color="#460022" offset="0.8333333333333334"></stop></linearGradient></defs></svg>